<svg width="192" height="92" viewBox="0 0 192 92" fill="none" xmlns="http://www.w3.org/2000/svg">
<path fill-rule="evenodd" clip-rule="evenodd" d="M85.8 73.055H88.38V58.169H85.721V64.024H85.681C85.3252 63.5564 84.8612 63.1822 84.329 62.9333C83.7967 62.6844 83.212 62.5683 82.625 62.595C79.489 62.595 78.337 65.095 78.337 67.914C78.337 70.714 79.489 73.293 82.625 73.293C83.2199 73.3234 83.8135 73.2135 84.3581 72.9722C84.9027 72.7309 85.3829 72.365 85.76 71.904H85.8V73.055ZM81.116 67.914C81.116 66.545 81.592 64.659 83.316 64.659C85.023 64.659 85.698 66.485 85.698 67.914C85.698 69.363 85.123 71.229 83.356 71.229C81.609 71.229 81.113 69.323 81.113 67.914M99.306 70.314C98.2841 70.9482 97.114 71.304 95.912 71.346C95.5492 71.3792 95.1835 71.3378 94.8373 71.2243C94.4911 71.1108 94.1717 70.9277 93.899 70.6862C93.6262 70.4447 93.4057 70.15 93.2511 69.8201C93.0965 69.4902 93.0111 69.1321 93 68.768H100.065C100.065 65.195 98.993 62.595 95.203 62.595C92.027 62.595 90.459 65.037 90.459 67.995C90.459 71.35 92.424 73.295 95.798 73.295C97.02 73.3347 98.2311 73.0541 99.311 72.481L99.306 70.314ZM93 66.942C92.9885 66.627 93.0414 66.313 93.1555 66.0192C93.2696 65.7254 93.4424 65.458 93.6635 65.2333C93.8845 65.0087 94.1491 64.8315 94.4409 64.7126C94.7328 64.5937 95.0459 64.5357 95.361 64.542C96.85 64.542 97.445 65.654 97.525 66.942H93ZM107.892 59.2H116.069V61.384H110.669V64.8H115.61V66.982H110.669V70.872H116.107V73.056H107.89L107.892 59.2ZM124.755 64.976C123.996 64.6829 123.188 64.5346 122.374 64.539C121.659 64.539 120.804 64.797 120.804 65.671C120.804 67.298 125.43 66.271 125.43 69.958C125.43 72.339 123.306 73.292 121.143 73.292C120.123 73.2765 119.109 73.13 118.126 72.856L118.284 70.672C119.092 71.099 119.99 71.3302 120.904 71.347C121.579 71.347 122.651 71.089 122.651 70.097C122.651 68.097 118.027 69.462 118.027 65.77C118.027 63.57 119.951 62.595 122.036 62.594C123.014 62.6035 123.988 62.7304 124.936 62.972L124.755 64.976ZM131.813 64.658C133.52 64.658 134.196 66.485 134.196 67.914C134.196 69.363 133.62 71.229 131.854 71.228C130.107 71.228 129.61 69.328 129.61 67.914C129.61 66.544 130.087 64.658 131.81 64.658M134.21 77.222H136.87V62.834H134.329V64.283H134.29C133.979 63.7398 133.523 63.2941 132.972 62.9961C132.422 62.6981 131.799 62.5595 131.174 62.596C127.974 62.596 126.826 65.096 126.826 67.915C126.826 70.715 127.977 73.293 131.174 73.293C131.752 73.3252 132.328 73.2133 132.852 72.9673C133.376 72.7214 133.83 72.3491 134.174 71.884H134.214L134.21 77.222ZM148.99 73.054H146.469V71.666H146.429C146.03 72.1733 145.52 72.5834 144.939 72.8652C144.358 73.1471 143.721 73.2933 143.075 73.293C140.653 73.293 139.601 71.586 139.601 69.284V62.834H142.261V68.292C142.261 69.543 142.281 71.229 143.988 71.229C145.913 71.229 146.33 69.145 146.33 67.835V62.835H148.99V73.054ZM159.918 70.315C158.896 70.9489 157.726 71.3047 156.524 71.347C156.161 71.3808 155.794 71.3397 155.447 71.2264C155.1 71.1131 154.78 70.93 154.507 70.6882C154.234 70.4465 154.013 70.1513 153.858 69.8209C153.703 69.4904 153.617 69.1318 153.606 68.767H160.672C160.672 65.195 159.6 62.595 155.81 62.595C152.634 62.595 151.066 65.036 151.066 67.995C151.066 71.349 153.031 73.295 156.405 73.295C157.627 73.3346 158.838 73.054 159.918 72.481V70.315ZM153.606 66.941C153.595 66.6259 153.647 66.3119 153.762 66.018C153.876 65.7241 154.049 65.4567 154.27 65.232C154.491 65.0073 154.756 64.8301 155.048 64.7113C155.34 64.5925 155.653 64.5345 155.968 64.541C157.457 64.541 158.053 65.653 158.131 66.941H153.606ZM162.806 62.833H165.168V65.154H165.207C165.33 64.48 165.67 63.8649 166.176 63.4028C166.682 62.9406 167.325 62.6569 168.007 62.595C168.281 62.583 168.555 62.6096 168.822 62.674V65.354C168.446 65.1916 168.039 65.1167 167.63 65.135C165.466 65.135 165.466 67.835 165.466 69.303V73.054H162.807L162.806 62.833ZM176.906 73.054H179.486V58.17H176.827V64.024H176.787C176.431 63.5565 175.967 63.1823 175.434 62.9336C174.902 62.6849 174.317 62.569 173.73 62.596C170.595 62.596 169.443 65.096 169.443 67.914C169.443 70.714 170.595 73.293 173.73 73.293C174.325 73.3237 174.919 73.2139 175.464 72.9727C176.009 72.7314 176.49 72.3653 176.867 71.904H176.906V73.054ZM172.222 67.913C172.222 66.544 172.698 64.659 174.422 64.659C176.129 64.659 176.804 66.485 176.804 67.913C176.804 69.362 176.229 71.228 174.462 71.228C172.716 71.228 172.219 69.328 172.219 67.913M184.116 70.1C184.116 68.532 185.882 68.333 187.073 68.333H188.224C188.275 69.0751 188.079 69.8131 187.668 70.433C187.453 70.7235 187.171 70.9582 186.846 71.1173C186.522 71.2763 186.164 71.3551 185.802 71.347C184.85 71.347 184.116 70.969 184.116 70.096M182.765 65.65C183.672 64.9519 184.778 64.5622 185.922 64.538C187.49 64.538 188.222 65.094 188.222 66.738H186.753C185.579 66.6843 184.407 66.8874 183.32 67.333C182.768 67.5854 182.305 67.9995 181.993 68.5205C181.681 69.0415 181.535 69.6449 181.573 70.251C181.573 72.196 183.34 73.287 185.146 73.287C185.78 73.292 186.404 73.1318 186.958 72.8221C187.511 72.5124 187.974 72.064 188.301 71.521H188.341C188.348 72.0324 188.388 72.5427 188.461 73.049H190.8C190.74 72.256 190.7 71.54 190.681 70.766C190.662 70.012 190.641 69.239 190.641 68.206V66.9C190.641 63.884 189.351 62.594 186.235 62.594C185.011 62.6116 183.803 62.8745 182.682 63.367L182.765 65.65ZM81.335 54.97H92.349C96.321 54.97 103.449 53.797 103.449 45.851C103.449 41.97 100.515 39.08 96.226 38.674V38.584C99.973 37.906 102.502 35.289 102.502 31.542C102.502 24.635 96.402 23.462 92.344 23.462H81.335V54.97ZM87.654 28.427H90.092C92.982 28.427 96.192 28.698 96.192 32.354C96.192 35.605 92.892 36.191 90.232 36.191H87.659L87.654 28.427ZM87.654 40.886H90.634C93.794 40.886 97.134 41.518 97.134 45.626C97.134 49.282 93.568 50.004 90.634 50.004H87.654V40.886ZM108.493 21.115H114.542V54.971H108.493V21.115ZM125.721 42.782C125.721 39.306 127.621 35.875 131.544 35.875C135.517 35.875 137.413 39.216 137.413 42.782C137.413 46.664 136.194 50.817 131.544 50.817C126.944 50.817 125.721 46.617 125.721 42.782ZM119.401 43.504C119.401 50.185 123.87 55.511 131.544 55.512C139.263 55.512 143.732 50.185 143.732 43.504C143.732 35.831 138.45 31.181 131.544 31.181C124.682 31.181 119.401 35.831 119.401 43.504ZM163.533 36.733C162.249 36.1326 160.842 35.8392 159.425 35.876C155.678 35.876 153.285 38.856 153.285 43.234C153.285 47.522 155.316 50.817 159.56 50.817C161.164 50.7502 162.741 50.3828 164.209 49.734L164.48 54.745C162.516 55.3128 160.475 55.5715 158.431 55.512C150.802 55.512 146.965 50.321 146.965 43.234C146.965 36.508 150.938 31.181 158.205 31.181C160.189 31.1394 162.167 31.3984 164.073 31.949L163.533 36.733ZM173.312 42.782C173.312 39.307 175.212 35.876 179.135 35.876C183.108 35.876 185.004 39.216 185.004 42.782C185.004 46.664 183.785 50.817 179.135 50.817C174.535 50.817 173.312 46.617 173.312 42.782ZM166.992 43.504C166.992 50.185 171.461 55.512 179.135 55.512C186.853 55.512 191.323 50.185 191.323 43.504C191.323 35.831 186.042 31.181 179.135 31.181C172.274 31.181 166.992 35.831 166.992 43.504Z" fill="white"/>
<path d="M0.125977 28.829C0.125977 28.829 20.226 34.829 38.534 29.729C56.842 24.629 76.343 10.829 80.844 6.62299L52.044 46.532L70.644 85.84L39.436 60.935L11.829 91.843L25.629 49.834L0.125977 28.829ZM27.08 12.722C26.109 20.037 29.964 26.582 35.691 27.344C41.418 28.106 46.846 22.789 47.817 15.474C48.788 8.15899 44.934 1.61299 39.207 0.85299C33.48 0.0929902 28.051 5.40699 27.08 12.722Z" fill="white"/>
</svg>
