<?xml version="1.0" encoding="UTF-8"?>
<!-- Generator: Adobe Illustrator 24.1.3, SVG Export Plug-In . SVG Version: 6.00 Build 0)  -->
<svg version="1.1" id="Layer_1" xmlns="http://www.w3.org/2000/svg" xmlns:xlink="http://www.w3.org/1999/xlink" x="0px" y="0px" viewBox="0 0 100 50" style="enable-background:new 0 0 100 50;" xml:space="preserve">
<style type="text/css">
	.st0{fill:#FFFFFF;}
	.st1{fill-rule:evenodd;clip-rule:evenodd;fill:#E21F26;}
	.st2{fill-rule:evenodd;clip-rule:evenodd;fill:#FFFFFF;}
</style>
<g>
	<path class="st0" d="M66.8,12.6h-11v25h6.6v-7.4h4.2c6.4,0,9.4-2.3,9.4-7.2v-3.2C75.9,14.8,73.1,12.6,66.8,12.6z M69.3,20.3v2.1   c0,1.6-0.4,2.4-2.8,2.4h-4.2V18h4.2C68.9,18,69.3,18.8,69.3,20.3z"/>
	<path class="st0" d="M87.5,22.6c-4-0.9-4-0.9-4-3c0-1.5,0.3-1.9,2.9-1.9c2.4,0,4.4,0.2,7.2,0.7l0.3,0l0.7-5.2l-0.3-0.1   c-3.3-0.7-6.2-0.8-8-0.8c-7,0-9.4,1.8-9.4,7.1c0,5.5,1.1,6.7,7.5,8c4.1,0.9,4.1,1,4.1,3c0,1.7-0.2,2.3-3.3,2.3   c-2.4,0-4.7-0.4-7.5-1.2l-0.3-0.1l-1.1,4.8l0.2,0.1c2.4,1,5.6,1.6,8.6,1.6c8.3,0,9.9-2.8,9.9-7.5C95.2,25.4,94.5,24.2,87.5,22.6z"/>
	<path class="st1" d="M52.4,25c0,13-10.5,23.5-23.5,23.5S5.4,38,5.4,25S15.9,1.5,28.9,1.5C41.9,1.5,52.4,12,52.4,25"/>
	<path class="st2" d="M37.2,20.5c0,0-1.3,1.8-2.4,2.9c0,0-0.9,1.3,0.5,1.5c0,0,1.2,0.5,2.5-0.8c0,0,1.5-1.1,1.2-3   C39,21.1,38.4,19.6,37.2,20.5"/>
	<path class="st2" d="M37,19.2c0,0,0.2-2.8-2.9-1.9c0,0-0.4,0.3-0.5,0.8c0,0-1.9,3.6-2.1,3.7c-0.1,0-1.3,1.2,0.1,1.7   c0,0,1.6,0.9,3.1-0.8C34.7,22.7,36.2,20.8,37,19.2"/>
	<path class="st2" d="M31.8,20.5c0,0,0.7-1.1,1.1-2.6c0,0,0.1-0.4,0-1.1c0,0-0.2-1.1-0.5-2.1c0,0-0.2-0.7-1.1-0.7   c0,0-1.4-0.3-1.6,1.3c0,0-0.5,2.3-0.7,2.8c0,0-1,1.6-1.1,2c-0.2,0.4-0.9,1.7,1,1.9C28.9,22.1,30.7,22.2,31.8,20.5"/>
	<path class="st2" d="M29.7,13.5c-0.2-1-1.5-1-1.8-1c0,0-1,0-2.3,0.4c0,0-1.1,0.3-1.9,1.8c0,0-0.5,1.1,1,0.6l0.6-0.6   c0,0,1,1.9,3.6,0.6C28.9,15.3,29.8,14.5,29.7,13.5"/>
	<polygon class="st2" points="10.2,32.1 11.4,32 11.2,31.3  "/>
	<path class="st2" d="M17.7,10.5c0.2,0.1,0.4,0,0.6-0.1c0.2-0.1,0.3-0.3,0.3-0.5c0-0.2-0.1-0.4-0.3-0.8c-0.2-0.3-0.4-0.4-0.6-0.5   c-0.2-0.1-0.4,0-0.6,0.1C17,8.9,16.9,9,16.9,9.2s0.1,0.4,0.3,0.7C17.4,10.2,17.5,10.4,17.7,10.5"/>
	<path class="st2" d="M9.3,26.2c0-0.1-0.1-0.1-0.1-0.2c-0.1,0-0.1-0.1-0.2,0c-0.1,0-0.2,0-0.2,0.1c-0.1,0.1-0.1,0.2-0.1,0.4l0,0.5   l0.7,0l0-0.4C9.4,26.4,9.4,26.3,9.3,26.2"/>
	<path class="st2" d="M14.3,14.2c0.1-0.2,0.2-0.3,0.2-0.4c0-0.1,0-0.2-0.1-0.3c-0.1-0.1-0.2-0.3-0.4-0.4c-0.3-0.2-0.5-0.3-0.7-0.3   c-0.2,0-0.4,0.1-0.5,0.4l-0.2,0.2l1.5,1.1L14.3,14.2z"/>
	<path class="st2" d="M12.7,36c-0.1,0-0.2,0-0.3,0.1s-0.1,0.2-0.2,0.2c0,0.1,0,0.2,0.1,0.4l0.2,0.2l0.6-0.5l-0.1-0.2   C13,36.1,12.9,36,12.7,36"/>
	<polygon class="st2" points="44.6,36.7 43.8,35.7 43.4,36.3  "/>
	<polygon class="st2" points="44.7,13.6 43.5,14 43.9,14.6  "/>
	<path class="st2" d="M32,7.4c0.2,0,0.4,0,0.6-0.1c0.2-0.1,0.3-0.4,0.3-0.8c0-0.3,0-0.6-0.1-0.7s-0.3-0.3-0.5-0.3   c-0.2,0-0.4,0-0.5,0.1c-0.1,0.1-0.3,0.4-0.3,0.7c-0.1,0.3,0,0.6,0,0.8C31.7,7.3,31.8,7.4,32,7.4"/>
	<path class="st2" d="M28.7,1.1C15.5,1.1,4.8,11.8,4.8,25s10.7,23.9,23.9,23.9c13.2,0,23.9-10.7,23.9-23.9   C52.6,11.8,41.9,1.1,28.7,1.1 M28.7,47.7C16.2,47.7,6,37.6,6,25.1c0-6,2.4-11.7,6.6-16s9.9-6.6,16-6.6c12.5,0,22.6,10.1,22.6,22.6   S41.1,47.7,28.7,47.7"/>
	<path class="st2" d="M28.7,9.6c-4.1,0-8,1.6-10.9,4.5c-2.9,2.9-4.5,6.8-4.5,10.9c0,8.5,6.9,15.4,15.4,15.4   c8.5,0,15.4-6.9,15.4-15.4S37.2,9.6,28.7,9.6 M27.2,39.3c0-0.6,0.1-1.1,0.1-1.1c0.2-1.1,0.3-0.2,0.3-0.2c0,0.4,0,0.8,0,1.2   C27.5,39.4,27.4,39.4,27.2,39.3 M29.8,39.4c0.2-1.5,0.3-3.4,0.3-3.4c0.2-1.1,0.3-0.1,0.3-0.1c0,1.5,0,2.7,0,3.5   C30.3,39.3,30,39.3,29.8,39.4 M33.8,38.5l-0.3-2.7c-0.2-1.2-0.7-2.1-0.7-2.1c1,0,2.2-1.5,2.2-1.5c0.7-1.1,0.8-1.8,0.8-1.8l0.2-0.5   c0.6,0,2.2-2.8,2.2-2.8c0.1-1.4-1-0.7-1-0.7c-2,0.9-3.7-0.2-3.7-0.2c-0.3-0.3-1.2-0.2-1.2-0.2c-1.3,0.5-2.6-0.3-2.6-0.3   c-0.7,1.2,0.4,3.3,0.4,3.3c-0.5-0.1-0.9,0.4-0.9,0.4v0c-0.1,0.8-0.5,1-0.5,1l-0.4,0.2c2.5-3.9-0.4-6.9-0.4-6.9   c-1.3-1.3-2.4-1.2-2.4-1.2c-0.8,0.6-1,0.1-1,0.1c-0.1-0.3-0.9-1.6-0.9-1.6c0.4-0.5,0.2-1.5,0.2-1.5c-0.5-0.8,1.1-0.4,1.1-0.4   c2.9-0.1,3.8-1.9,3.8-1.9c0.8-1.4-0.8-1.2-0.8-1.2c-0.8,0.1-2.4,0-2.4,0c-1.8-0.3-3-0.1-3-0.1L20,18.8c-0.1,0.6-0.6,7.2-0.6,7.2   l2.9,6.6c0.1,0.5,0.4,0.5,0.4,0.5l0.8,0c0.5,0.1,0.5,0.3,0.5,0.3l-0.3,0.2c-0.8,0.1-0.7,0.7-0.7,0.7c-0.1,0.7-0.2,2.6-0.2,2.6   l0,1.2c-5-2.3-8.4-7.3-8.4-13.1c0-8,6.5-14.4,14.4-14.4c8,0,14.4,6.5,14.4,14.4C43.2,31.2,39.2,36.5,33.8,38.5"/>
	<path class="st2" d="M28.6,3.3c-5.8,0-11.3,2.3-15.4,6.4c-4.1,4.1-6.4,9.6-6.4,15.4c0,12,9.8,21.9,21.9,21.9l0,0   c12.1,0,21.8-9.8,21.8-21.9C50.5,13.1,40.7,3.3,28.6,3.3 M49.2,22.9l-3.4,0.5l-0.2-1l3.4-0.5L49.2,22.9z M48,18l-2.4,0.8l0.5,1.6   l-0.8,0.3l-0.9-2.6l3.2-1.1L48,18z M45.1,12.6l0.7,0.9l-2,3.1l-0.7-0.9l0.4-0.5l-0.7-1l-0.6,0.2l-0.6-0.9L45.1,12.6z M41.9,9.2   l0.8,0.7l-2.3,2.6l-0.8-0.7L41.9,9.2z M36.1,7.6c0.3-0.5,0.6-0.8,1-0.9c0.4-0.1,0.9-0.1,1.3,0.2c0.4,0.2,0.6,0.4,0.8,0.7   s0.2,0.6,0.1,1l-0.9-0.3c0-0.1,0-0.2,0-0.2c0-0.1,0-0.2-0.1-0.3c-0.1-0.1-0.1-0.2-0.2-0.2c-0.2-0.1-0.4-0.1-0.6,0   c-0.2,0.1-0.3,0.3-0.4,0.5c-0.2,0.3-0.2,0.6-0.2,0.8c0,0.2,0.1,0.3,0.3,0.4c0.2,0.1,0.3,0.1,0.5,0.1C37.8,9.3,38,9.2,38.1,9   l0.7,0.7c-0.2,0.2-0.4,0.3-0.6,0.4c-0.2,0.1-0.4,0.1-0.6,0.1c-0.2,0-0.5-0.1-0.7-0.2c-0.3-0.2-0.6-0.4-0.7-0.6   C36,9.2,35.9,9,35.9,8.6C35.8,8.3,35.9,7.9,36.1,7.6 M30.5,6.1c0.1-0.6,0.3-0.9,0.7-1.2c0.4-0.2,0.8-0.3,1.4-0.2   c0.6,0.1,1,0.3,1.2,0.7C34,5.8,34.1,6.2,34,6.8c-0.1,0.4-0.2,0.7-0.4,0.9c-0.2,0.2-0.4,0.4-0.7,0.5c-0.3,0.1-0.6,0.1-1,0   C31.5,8.1,31.2,8,31,7.8s-0.4-0.4-0.5-0.7C30.4,6.9,30.4,6.5,30.5,6.1 M27.2,6.7c-0.1-0.1-0.3-0.1-0.6-0.2c-0.5-0.1-0.8-0.2-1-0.3   c-0.2-0.2-0.3-0.4-0.4-0.6c0-0.2,0-0.3,0.1-0.5c0.1-0.2,0.2-0.3,0.4-0.4c0.2-0.1,0.5-0.2,0.8-0.2c0.4,0,0.8,0,1,0.2   c0.2,0.1,0.4,0.4,0.5,0.7l-1,0.2c0-0.2-0.1-0.3-0.2-0.3c-0.1-0.1-0.2-0.1-0.4-0.1c-0.1,0-0.2,0.1-0.3,0.1c-0.1,0.1-0.1,0.1-0.1,0.2   c0,0.1,0,0.1,0.1,0.1s0.2,0.1,0.4,0.1c0.5,0.1,0.8,0.1,1,0.2c0.2,0.1,0.4,0.2,0.5,0.3c0.1,0.1,0.2,0.3,0.2,0.5c0,0.2,0,0.4-0.1,0.6   c-0.1,0.2-0.3,0.3-0.5,0.5C27.6,7.9,27.3,7.9,27,8c-0.6,0.1-1,0-1.2-0.2c-0.2-0.2-0.4-0.5-0.5-0.8l1-0.2c0,0.2,0.1,0.3,0.2,0.4   c0.1,0.1,0.3,0.2,0.5,0.2c0.1,0,0.3-0.1,0.3-0.1s0.1-0.2,0.1-0.3C27.4,6.8,27.3,6.7,27.2,6.7 M15.9,9.2c0.1-0.4,0.3-0.8,0.8-1.1   c0.5-0.3,0.9-0.5,1.3-0.4c0.4,0.1,0.8,0.3,1.1,0.8c0.2,0.3,0.4,0.6,0.4,0.9c0,0.3,0,0.6-0.1,0.8c-0.1,0.3-0.3,0.5-0.6,0.7   c-0.3,0.2-0.6,0.4-0.9,0.4c-0.3,0.1-0.6,0-0.8-0.1s-0.5-0.4-0.8-0.7C16,10.1,15.8,9.6,15.9,9.2 M12.3,12.4c0.2-0.2,0.4-0.4,0.6-0.5   c0.2-0.1,0.4-0.1,0.6-0.2s0.4,0,0.6,0.1c0.2,0.1,0.4,0.2,0.6,0.3c0.3,0.2,0.5,0.4,0.6,0.6c0.1,0.2,0.2,0.4,0.2,0.6   c0,0.2,0,0.4-0.1,0.5c-0.1,0.2-0.2,0.4-0.3,0.6l-0.9,1.3l-2.7-2.1L12.3,12.4z M10.1,15.9l3.1,1.4l-0.4,1l-3.1-1.5L10.1,15.9z    M8.7,19.2l0.8,0.2l-0.2,1.1l2.5,0.5l-0.2,1l-2.5-0.5l-0.2,1.1l-0.8-0.2L8.7,19.2z M8,26.3c0-0.3,0-0.6,0-0.8   c0.1-0.2,0.1-0.3,0.3-0.4c0.1-0.1,0.3-0.2,0.5-0.2c0.2,0,0.4,0,0.5,0.1s0.3,0.2,0.4,0.3c0.1,0.1,0.1,0.2,0.2,0.4   c0-0.1,0.1-0.2,0.1-0.3c0,0,0.1-0.1,0.2-0.2c0.1-0.1,0.1-0.1,0.2-0.2l0.9-0.6l0.1,1.2l-1,0.6c-0.1,0.1-0.2,0.1-0.2,0.2   c-0.1,0.1-0.1,0.2-0.1,0.3l0,0.1l1.4-0.1l0.1,1.1L8.1,28L8,26.3z M9.1,31.9l2.7-2.4l0.4,1l-0.5,0.4l0.4,1.1l0.6,0l0.4,1l-3.7,0   L9.1,31.9z M12.7,38.2l-1-1.4c-0.2-0.3-0.3-0.6-0.3-0.9c0-0.3,0.2-0.5,0.5-0.7c0.3-0.2,0.6-0.3,0.8-0.2c0.3,0,0.6,0.2,0.8,0.6   l0.3,0.5l1-0.8l0.6,0.9L12.7,38.2z M28.7,41.2c-8.9,0-16.2-7.3-16.2-16.2c0-4.3,1.7-8.4,4.7-11.4c3.1-3.1,7.1-4.7,11.4-4.7   c8.9,0,16.2,7.3,16.2,16.2C44.9,33.9,37.7,41.2,28.7,41.2 M45,37.7l-3.5-1l0.7-0.9l0.6,0.2l0.7-1L43,34.6l0.6-0.9l2,3.1L45,37.7z    M47.3,34l-0.8-0.3l0.4-1l-2.4-0.9l0.4-1l2.4,0.9l0.4-1l0.8,0.3L47.3,34z M48.9,28c-0.2,0.2-0.5,0.3-0.8,0.3l0-1   c0.2,0,0.3-0.1,0.3-0.1c0.1-0.1,0.1-0.2,0.1-0.3c0-0.1,0-0.2-0.1-0.3c0-0.1-0.1-0.1-0.2-0.1c0,0-0.1,0-0.2,0.1c0,0-0.1,0.2-0.2,0.4   c-0.1,0.5-0.3,0.8-0.4,1c-0.1,0.2-0.2,0.3-0.4,0.4s-0.3,0.1-0.5,0.1c-0.2,0-0.4-0.1-0.6-0.2s-0.3-0.3-0.4-0.5   c-0.1-0.2-0.1-0.5-0.1-0.8c0-0.6,0.2-1,0.4-1.2c0.2-0.2,0.5-0.3,0.9-0.3l0,1c-0.2,0-0.3,0-0.4,0.1c-0.2,0.1-0.2,0.2-0.2,0.5   c0,0.1,0,0.3,0.1,0.4s0.1,0.1,0.2,0.1c0.1,0,0.2,0,0.2-0.1s0.2-0.2,0.2-0.5c0.1-0.5,0.3-0.8,0.5-1c0.2-0.2,0.4-0.3,0.7-0.2   c0.2,0,0.3,0.1,0.5,0.2c0.2,0.1,0.2,0.3,0.3,0.5c0.1,0.2,0.1,0.5,0.1,0.9C49.2,27.4,49.1,27.8,48.9,28"/>
</g>
</svg>