<?xml version="1.0" encoding="utf-8"?>
<svg width="140px" height="61px" viewBox="0 0 140 61" version="1.1" xmlns:xlink="http://www.w3.org/1999/xlink" xmlns="http://www.w3.org/2000/svg">
  <desc>Created with Lunacy</desc>
  <g id="PSD-logo-Copy">
    <path d="M85.1558 14.762C84.4551 17.4805 83.6603 19.4658 82.4649 20.6272C81.3295 21.7529 79.8827 22.4114 77.714 22.4114L76.3937 22.4114L80.3449 7.1093L81.6636 7.1093C83.8323 7.1093 84.9352 7.77108 85.4932 8.89351C86.0901 10.0581 85.8614 12.037 85.1591 14.7587M23.7982 9.9462C23.2889 11.9251 21.6896 12.9745 18.212 12.9745L17.5486 12.9745L19.0619 7.1093L20.4763 7.1093C23.396 7.1093 24.3092 7.9641 23.7982 9.9462M84.7649 0.733151L68.7865 0.733151L64.6844 16.6289C64.274 14.7928 62.8661 13.3573 60.2822 12.3808C57.1501 11.1757 52.5923 10.3987 50.1592 9.78562C48.834 9.43527 48.1431 9.00868 48.4042 8.0014C48.6264 7.14822 49.7667 6.37128 51.9353 6.37128C53.679 6.37128 54.709 6.95358 54.3035 8.70049L66.3697 8.70049C68.0549 2.17512 62.2514 0 53.7666 0C45.4943 0 39.5723 2.28542 36.9463 6.40696C36.3883 3.00397 33.2513 0.733151 27.0212 0.733151L7.23257 0.733151L0 28.7778L13.4822 28.7778L15.9152 19.3377L20.3303 19.3377C28.2523 19.3377 33.3259 16.7019 35.6406 12.5982C36.1401 14.4295 37.7492 15.7952 40.8926 16.6176L49.8624 18.95C51.0562 19.2614 51.9029 19.8048 51.6336 20.8543C51.3092 22.0951 49.7699 23.1462 47.7911 23.1462C46.5162 23.1462 45.7571 22.7926 45.3808 22.2524C45.0126 21.6669 45.0239 20.8916 45.2186 20.1146L32.3154 20.1146C30.4323 27.4137 37.4345 29.5223 45.6338 29.5223C53.4681 29.5223 59.9075 27.6116 62.9894 23.1965L61.5474 28.7892L78.332 28.7892C88.8005 28.7892 96.8425 23.5452 99.0289 15.0799C101.172 6.76543 98.3801 0.744505 84.7649 0.744505" transform="translate(40.21436 25.22742)" id="Shape" fill="#FFFFFF" stroke="none" />
    <path d="M3.17753 1.20288C3.06097 1.63651 2.65198 1.92553 2.20432 1.89062L1.27328 1.89062L1.66257 0.513524L2.59523 0.513524C2.66659 0.513524 3.37704 0.47784 3.17266 1.20288M3.79552 1.20288C4.06153 0.265356 3.45652 -0.0314733 2.64875 0.00258903L1.21327 0.00258903L0 4.29444L0.592036 4.29444L1.13541 2.40317L1.94642 2.40317C2.74121 2.38533 3.55222 2.10148 3.80525 1.20288" transform="translate(38.32312 56.53943)" id="Shape" fill="#FFFFFF" stroke="none" />
    <path d="M0 4.29185L3.01695 0L3.6544 0.00162202L4.17831 4.29185L3.52951 4.29185L3.3819 3.17266L1.38682 3.17266L0.609878 4.29185L0 4.29185ZM3.33324 2.66984L3.1386 0.58717L1.73394 2.66984L3.33324 2.66984Z" transform="translate(41.42932 56.54199)" id="Shape" fill="#FFFFFF" fill-rule="evenodd" stroke="none" />
    <path d="M3.2489 1.18407C3.15482 1.52145 2.92449 1.81666 2.25298 1.84748L1.27977 1.84748L1.65608 0.517423L2.62929 0.517423C3.27809 0.548241 3.3446 0.841826 3.25052 1.18407M2.74445 0.00648806L1.21327 0.00648806L0 4.29834L0.593658 4.29834L1.13866 2.35192L1.97237 2.35192C2.20432 2.36977 2.44762 2.35192 2.56441 2.54819C2.68119 2.74445 2.60009 3.11265 2.53846 3.49869C2.49953 3.75497 2.48817 4.03233 2.47033 4.28699L3.10616 4.28699C3.09113 3.85596 3.12377 3.42459 3.20348 3.00073C3.27323 2.51412 3.27972 2.24649 2.79636 2.11997L2.79636 2.10862C3.32447 1.99222 3.74615 1.59546 3.89446 1.0754C4.1329 0.227082 3.45489 0 2.73634 0" transform="translate(46.52893 56.53552)" id="Shape" fill="#FFFFFF" stroke="none" />
    <path d="M0.142737 0L0 0.510935L1.43711 0.510935L0.368198 4.29023L0.963477 4.29023L2.03076 0.510935L3.46787 0.510935L3.61061 0L0.142737 0L0.142737 0Z" transform="translate(51.30737 56.54199)" id="Path" fill="#FFFFFF" stroke="none" />
    <path d="M1.21003 0L0 4.29023L0.593658 4.29023L1.80531 0L1.21003 0L1.21003 0Z" transform="translate(54.66821 56.54199)" id="Path" fill="#FFFFFF" stroke="none" />
    <path d="M3.48085 2.14755C3.36902 2.57967 3.14523 2.97466 2.83204 3.29269C2.50988 3.61806 2.06667 3.7944 1.60904 3.7793L0.738017 3.7793L1.66094 0.510935L2.53034 0.510935C3.13049 0.510935 3.38028 0.755859 3.48085 0.99754C3.61155 1.36918 3.61155 1.77429 3.48085 2.14593M2.63578 0L1.21002 0L0 4.29348L1.42575 4.29348C1.85369 4.3079 2.27879 4.21888 2.66497 4.03395C3.3838 3.63237 3.90453 2.95137 4.1037 2.15242C4.33403 1.34141 4.23995 0.665027 3.72577 0.269255C3.44516 0.0502825 3.03155 0.0194642 2.63578 0.00648806" transform="translate(56.66809 56.54041)" id="Shape" fill="#FFFFFF" stroke="none" />
    <path d="M0.130712 2.23352C0.489177 0.97321 1.3894 0 2.72594 0C4.06248 0 4.41121 0.971588 4.05437 2.23352C3.69752 3.49544 2.78757 4.46865 1.45914 4.46865C0.130712 4.46865 -0.227754 3.49382 0.130712 2.23352ZM1.60837 3.95448C2.6935 3.95448 3.17848 3.12238 3.43151 2.23189C3.68941 1.32032 3.66995 0.509313 2.58158 0.509313C1.4932 0.509313 1.0066 1.34141 0.75681 2.23189C0.507019 3.12238 0.523239 3.95448 1.60837 3.95448Z" transform="translate(61.61108 56.45447)" id="Shape" fill="#FFFFFF" fill-rule="evenodd" stroke="none" />
    <path d="M2.68268 0.00486605C1.88141 0.00486605 0.932527 0.351978 0.669761 1.28139C0.39564 2.24487 1.52781 2.40545 2.19121 2.56116C2.52535 2.63253 2.82542 2.80447 2.70701 3.20997C2.5367 3.81174 1.90411 3.95448 1.4094 3.95448C0.831962 3.95448 0.546488 3.72902 0.707067 3.124L0.0809694 3.124C-0.215859 4.08586 0.334004 4.46703 1.23098 4.46703C2.09713 4.46703 3.0671 4.11992 3.3396 3.14671C3.64616 2.06645 2.56752 2.06645 1.85383 1.81179C1.50996 1.69176 1.17421 1.66094 1.31208 1.17596C1.45644 0.661783 2.07767 0.509313 2.49939 0.509313C2.92112 0.509313 3.28283 0.671515 3.17091 1.15812L3.79376 1.15812C4.02895 0.329269 3.40286 0 2.67295 0" transform="translate(68.36951 56.44958)" id="Path" fill="#FFFFFF" stroke="none" />
    <path d="M0.133134 2.23352C0.494844 0.97321 1.39344 0 2.72836 0C4.07139 0 4.41526 0.971588 4.05679 2.23352C3.69833 3.49544 2.79811 4.46865 1.46157 4.46865C0.125024 4.46865 -0.228575 3.49382 0.133134 2.23352ZM1.61566 3.95448C2.70079 3.95448 3.18901 3.12238 3.44042 2.23189C3.69833 1.32032 3.67724 0.509313 2.59049 0.509313C1.50374 0.509313 1.022 1.34141 0.768964 2.23189C0.51593 3.12238 0.530528 3.95448 1.61566 3.95448Z" transform="translate(72.90112 56.45447)" id="Shape" fill="#FFFFFF" fill-rule="evenodd" stroke="none" />
    <path d="M2.51208 0.511841C2.94841 0.511841 3.31174 0.784339 3.22415 1.19633L3.84862 1.19633C4.00109 0.429118 3.49502 0.0252362 2.67753 0.000905988C1.25178 -0.0380224 0.442392 1.18498 0.143942 2.23604C-0.195059 3.43633 0.0190466 4.46956 1.27935 4.46956C2.11793 4.46956 2.9776 3.99269 3.23875 3.27413L2.61589 3.27413C2.40641 3.70685 1.96091 3.97479 1.48048 3.957C0.549445 3.957 0.518627 3.11842 0.768417 2.23604C0.979279 1.48181 1.44966 0.511841 2.51046 0.511841" transform="translate(77.85693 56.4519)" id="Path" fill="#FFFFFF" stroke="none" />
    <path d="M1.21327 0L0 4.29023L0.59528 4.29023L1.80855 0L1.21327 0L1.21327 0Z" transform="translate(81.90833 56.54199)" id="Path" fill="#FFFFFF" stroke="none" />
    <path d="M0 4.29185L3.01533 0L3.65278 0.00162202L4.17669 4.29185L3.52788 4.29185L3.38028 3.17266L1.39169 3.17266L0.609878 4.29185L0 4.29185ZM3.33486 2.66173L3.14022 0.58717L1.73556 2.66173L3.33486 2.66173Z" transform="translate(83.44116 56.54199)" id="Shape" fill="#FFFFFF" fill-rule="evenodd" stroke="none" />
    <path d="M1.21165 0L0 4.29023L2.59198 4.29023L2.73472 3.7793L0.739639 3.7793L1.80368 0L1.21165 0L1.21165 0Z" transform="translate(88.58289 56.54199)" id="Path" fill="#FFFFFF" stroke="none" />
    <path d="M3.48085 2.14755C3.36902 2.57967 3.14523 2.97466 2.83204 3.29269C2.50899 3.61873 2.0645 3.79512 1.6058 3.7793L0.739639 3.7793L1.66094 0.510935L2.53034 0.510935C3.12725 0.510935 3.38028 0.755859 3.48085 0.99754C3.61233 1.36904 3.61233 1.77442 3.48085 2.14593M2.63578 0L1.21002 0L0 4.29348L1.42575 4.29348C1.85267 4.30821 2.27679 4.21916 2.66173 4.03395C3.38228 3.63323 3.90484 2.95215 4.10532 2.15242C4.33403 1.34141 4.23671 0.665027 3.72577 0.269255C3.44516 0.0502825 3.03155 0.0194642 2.63578 0.00648806" transform="translate(94.21777 56.54041)" id="Shape" fill="#FFFFFF" stroke="none" />
    <path d="M1.21165 0L0 4.29023L2.73796 4.29023L2.88394 3.7793L0.738017 3.7793L1.14028 2.36003L3.13698 2.36003L3.27971 1.8491L1.28464 1.8491L1.66257 0.510935L3.75659 0.510935L3.90419 0L1.21165 0L1.21165 0Z" transform="translate(98.78381 56.54199)" id="Path" fill="#FFFFFF" stroke="none" />
    <path d="M4.73466 0L2.52386 3.53437L2.51412 3.53437L2.27569 0L1.21002 0L0 4.29023L0.592036 4.29023L1.68527 0.42659L1.69663 0.42659L1.97886 4.29023L2.53683 4.29023L4.99905 0.42659L5.01041 0.42659L3.92041 4.29023L4.51569 4.29023L5.72572 0L4.73466 0L4.73466 0Z" transform="translate(102.868 56.54199)" id="Path" fill="#FFFFFF" stroke="none" />
    <path d="M0.131386 2.23352C0.491474 0.97321 1.39169 0 2.72661 0C4.06477 0 4.41026 0.971588 4.05504 2.23352C3.69982 3.49544 2.78825 4.46865 1.45982 4.46865C0.131386 4.46865 -0.228701 3.49382 0.131386 2.23352ZM1.61066 3.95448C2.69904 3.95448 3.18078 3.12238 3.43381 2.23189C3.69171 1.32032 3.67225 0.509313 2.58387 0.509313C1.4955 0.509313 1.01376 1.34141 0.760728 2.23189C0.507694 3.12238 0.522292 3.95448 1.61066 3.95448Z" transform="translate(109.103 56.45447)" id="Shape" fill="#FFFFFF" fill-rule="evenodd" stroke="none" />
    <path d="M2.5045 0.511841C2.94731 0.511841 3.31551 0.784339 3.22143 1.19633L3.84429 1.19633C3.99838 0.429118 3.49555 0.0252362 2.67644 0.000905988C1.25068 -0.0380224 0.441299 1.18498 0.144471 2.23604C-0.19453 3.43633 0.0163317 4.46956 1.27988 4.46956C2.11684 4.46956 2.97326 3.99269 3.2263 3.27413L2.61156 3.27413C2.40175 3.70656 1.95646 3.97437 1.47614 3.957C0.543486 3.957 0.512668 3.11842 0.760836 2.23604C0.974942 1.48181 1.44533 0.511841 2.49964 0.511841" transform="translate(114.0549 56.4519)" id="Path" fill="#FFFFFF" stroke="none" />
    <path d="M2.2546 1.84099L1.28139 1.84099L1.6577 0.510935L2.63415 0.510935C3.28296 0.541753 3.34784 0.835338 3.25214 1.17758C3.15644 1.51983 2.92774 1.81017 2.25785 1.84099M3.90581 1.0754C4.14587 0.227082 3.46625 0 2.74932 0L1.21651 0L0 4.29185L0.593658 4.29185L1.14028 2.34544L1.97075 2.34544C2.20594 2.36328 2.45735 2.34544 2.56279 2.5417C2.66822 2.73796 2.60009 3.10616 2.54008 3.4922C2.4979 3.74686 2.48979 4.02584 2.47195 4.2805L3.10778 4.2805C3.09275 3.84947 3.12539 3.4181 3.2051 2.99424C3.27323 2.50764 3.27809 2.24 2.7996 2.11349L2.7996 2.10213C3.32879 1.98647 3.75177 1.58964 3.90095 1.06891" transform="translate(118.0874 56.54199)" id="Shape" fill="#FFFFFF" stroke="none" />
    <path d="M0 4.29185L3.01695 0L3.65602 0.00162202L4.17669 4.29185L3.52788 4.29185L3.37866 3.17266L1.39007 3.17266L0.609878 4.29185L0 4.29185ZM3.33324 2.66984L3.14184 0.58717L1.73718 2.66984L3.33324 2.66984Z" transform="translate(121.9478 56.54199)" id="Shape" fill="#FFFFFF" fill-rule="evenodd" stroke="none" />
    <path d="M0.145982 0L0 0.510935L1.43873 0.510935L0.371442 4.29023L0.966722 4.29023L2.03401 0.510935L3.47112 0.510935L3.61385 0L0.145982 0L0.145982 0Z" transform="translate(127.2469 56.54199)" id="Path" fill="#FFFFFF" stroke="none" />
    <path d="M0 4.29185L3.01533 0L3.65278 0.00162202L4.17507 4.29185L3.52626 4.29185L3.37866 3.17266L1.38845 3.17266L0.609878 4.29185L0 4.29185ZM3.33162 2.66984L3.14022 0.58717L1.72907 2.66984L3.33162 2.66984Z" transform="translate(129.6978 56.54199)" id="Shape" fill="#FFFFFF" fill-rule="evenodd" stroke="none" />
    <path d="M17.0926 17.7888C16.52 18.3614 16.3254 19.0021 16.5492 19.5454C16.7731 20.0888 17.3505 20.4019 18.0707 20.4019L29.201 20.4019C29.4007 20.3793 29.5996 20.4506 29.7395 20.5949C29.8806 20.7684 29.853 21.0507 29.8076 21.255L23.412 46.5179C23.3017 47.5528 21.8257 48.6444 20.5361 48.6444L12.2201 48.6444C10.7359 48.6444 9.32153 49.7798 8.93062 51.2834L7.2194 58.2678C7.05493 58.9388 7.20673 59.6482 7.63139 60.1932C7.79501 60.3906 7.99417 60.5556 8.21856 60.6798L5.8715 60.6798C5.27437 60.7141 4.69702 60.4598 4.31932 59.996C3.94162 59.5323 3.80946 58.9154 3.96401 58.3376L6.48462 48.2584C6.76686 46.9299 8.10664 45.8464 9.4594 45.8464L17.6814 45.8464C19.1801 45.8464 20.6627 44.6559 20.9822 43.1944L25.5612 24.7181C25.6114 24.4731 25.6455 24.1666 25.4671 23.946C25.3341 23.7838 25.1151 23.701 24.7956 23.701L11.7919 23.701C10.6565 23.701 9.83733 23.3134 9.55672 22.6321C9.27611 21.9509 9.5843 21.0653 10.3888 20.2607L29.5789 1.03013C30.5402 0.0875346 32.079 0.0875346 33.0403 1.03013L33.5561 1.50538L17.0926 17.7888ZM44.1803 20.41L54.4736 20.41C55.0218 20.41 55.622 19.9607 55.8685 19.367C56.0799 18.9178 55.9864 18.3843 55.635 18.0337L38.1756 0.806288C37.6502 0.296949 36.9463 0.0134278 36.2146 0.0163657C35.4863 0.00933395 34.7855 0.293748 34.2681 0.806288L33.7815 1.27992L33.2576 0.793311C32.1711 -0.267583 30.4355 -0.263978 29.3534 0.801421L28.9641 1.19233L28.5067 0.793311C27.419 -0.268809 25.6809 -0.263759 24.5993 0.804666L2.90321 22.4164C2.05328 23.3896 1.82133 24.6564 2.2982 25.7107C2.75723 26.7148 3.78072 27.3149 5.03292 27.3149L20.3399 27.3149C20.5193 27.2994 20.6967 27.362 20.8265 27.4868C20.9206 27.6539 20.9361 27.854 20.8687 28.0334L17.8533 40.0331C17.5679 41.3583 16.2313 42.437 14.8688 42.437L6.7036 42.437C5.20485 42.437 3.73693 43.6145 3.43199 45.0565L0.0711736 58.2662C-0.104711 58.9377 0.0496668 59.6527 0.486893 60.1918C0.92412 60.7309 1.59193 61.0296 2.28523 60.9961L9.38803 60.9961C9.40101 60.9961 9.41236 60.9961 9.42696 60.9961L28.6349 60.9961C30.956 60.962 33.1522 58.8874 33.6631 57.0383L42.6037 21.6784C42.8275 20.8285 43.3449 20.4116 44.1787 20.41" id="Shape" fill="#FFFFFF" stroke="none" />
  </g>
</svg>